<svg xmlns="http://www.w3.org/2000/svg" width="158" height="31" viewBox="0 0 158 31" xmlns:xlink="http://www.w3.org/1999/xlink">
  <defs>
    <polygon id="a" points="97.271 30.94 .06 30.94 .06 .976 48.666 .976 97.271 .976 97.271 30.94"/>
  </defs>
  <g fill="none" fill-rule="evenodd">
    <mask id="b" fill="white">
      <use xlink:href="#a"/>
    </mask>
    <path fill="#DA2F2A" d="M9.9,3.28 L8.424,3.28 C7.872,3.28 7.332,3.382 6.804,3.587 C6.275,3.792 5.808,4.116 5.4,4.562 C4.991,5.007 4.662,5.597 4.41,6.332 C4.158,7.066 4.032,7.975 4.032,9.059 C4.032,10.094 4.146,10.961 4.374,11.659 C4.602,12.357 4.914,12.923 5.31,13.357 C5.706,13.79 6.174,14.097 6.714,14.277 C7.254,14.458 7.824,14.548 8.424,14.548 L9.9,14.548 L9.9,3.28 Z M7.596,16.852 L3.204,26.716 L0,26.716 L4.824,16.168 C3.695,15.592 2.784,14.746 2.088,13.63 C1.392,12.514 1.044,10.996 1.044,9.076 C1.044,7.732 1.242,6.55 1.638,5.53 C2.034,4.51 2.574,3.664 3.258,2.992 C3.942,2.32 4.739,1.816 5.652,1.48 C6.563,1.144 7.524,0.976 8.532,0.976 L12.672,0.976 L12.672,26.716 L9.9,26.716 L9.9,16.852 L7.596,16.852 L7.596,16.852 Z" mask="url(#b)"/>
    <path fill="#1A1918" d="M72.756 26.968C70.812 26.968 69.287 26.194 68.184 24.646 67.08 23.098 66.528 20.764 66.528 17.644 66.528 16.228 66.665 14.944 66.942 13.792 67.217 12.64 67.626 11.662 68.165 10.858 68.706 10.054 69.377 9.43 70.182 8.986 70.985 8.542 71.915 8.32 72.972 8.32 73.787 8.32 74.448 8.41 74.952 8.59 75.456 8.77 75.911 8.992 76.32 9.256L75.924 11.92C75.54 11.574 75.089 11.272 74.574 11.013 74.057 10.754 73.512 10.624 72.936 10.624 71.928 10.624 71.1 11.191 70.452 12.325 69.804 13.459 69.479 15.184 69.479 17.499 69.479 19.791 69.749 21.558 70.29 22.8 70.83 24.043 71.676 24.664 72.828 24.664 73.523 24.664 74.123 24.546 74.627 24.311 75.132 24.076 75.551 23.81 75.888 23.512L76.536 25.6C76.055 26.008 75.515 26.338 74.915 26.59 74.315 26.842 73.596 26.968 72.756 26.968zM58.32 17.68L58.32 26.716 55.512 26.716 55.512 8.572 58.32 8.572 58.32 16.96 62.676 8.572 65.52 8.572 61.02 17.104 66.168 26.716 63.108 26.716 58.32 17.68zM47.627 10.624C46.764 10.624 46.152 11.11 45.792 12.082 45.432 13.054 45.203 14.356 45.108 15.988L49.752 15.988C49.752 15.22 49.716 14.506 49.644 13.846 49.572 13.186 49.458 12.616 49.302 12.136 49.146 11.656 48.929 11.284 48.654 11.02 48.377 10.756 48.036 10.624 47.627 10.624zM52.668 25.492C52.092 25.948 51.431 26.308 50.687 26.572 49.943 26.835 49.116 26.968 48.204 26.968 46.332 26.968 44.855 26.242 43.776 24.79 42.696 23.338 42.156 21.208 42.156 18.4 42.156 16.936 42.257 15.592 42.462 14.368 42.666 13.144 42.989 12.082 43.434 11.182 43.877 10.282 44.447 9.58 45.144 9.076 45.839 8.572 46.667 8.32 47.627 8.32 48.371 8.32 49.055 8.47 49.68 8.77 50.304 9.07 50.832 9.556 51.264 10.228 51.696 10.9 52.031 11.77 52.271 12.838 52.511 13.906 52.632 15.208 52.632 16.744L52.632 18.292 45.072 18.292C45.072 20.356 45.354 21.916 45.917 22.972 46.481 24.028 47.327 24.556 48.456 24.556 49.248 24.556 49.95 24.418 50.562 24.142 51.174 23.866 51.66 23.596 52.02 23.332L52.668 25.492zM36.252 10.876L33.12 10.876 33.12 11.199C33.12 12.157 33.102 13.204 33.066 14.341 33.03 15.478 32.952 16.633 32.832 17.806 32.711 18.978 32.543 20.133 32.328 21.27 32.112 22.408 31.812 23.455 31.428 24.412L36.252 24.412 36.252 10.876zM40.464 30.28L37.944 30.28 37.944 26.716 30.167 26.716 30.167 30.28 27.647 30.28 27.647 24.412 28.764 24.412C29.171 23.452 29.496 22.39 29.736 21.226 29.975 20.062 30.162 18.862 30.294 17.626 30.425 16.39 30.51 15.13 30.546 13.846 30.582 12.562 30.6 11.32 30.6 10.12L30.6 8.572 39.023 8.572 39.023 24.412 40.464 24.412 40.464 30.28zM26.028 8.572L26.028 26.716 23.256 26.716 23.256 18.58 19.08 18.58 19.08 26.716 16.271 26.716 16.271 8.572 19.08 8.572 19.08 16.276 23.256 16.276 23.256 8.572 26.028 8.572 26.028 8.572zM93.707 2.416L88.127 2.416C88.079 5.714 88.007 8.609 87.911 11.102 87.815 13.593 87.695 15.778 87.551 17.656 87.383 19.606 87.149 21.213 86.849 22.478 86.549 23.741 86.159 24.674 85.679 25.276L93.707 25.276 93.707 2.416zM95.615 26.716L84.599 26.716 84.347 31 82.943 31 82.943 25.276 83.699 25.276C84.323 24.747 84.803 23.81 85.139 22.464 85.475 21.118 85.739 19.519 85.931 17.668 86.123 15.746 86.255 13.384 86.327 10.584 86.399 7.784 86.459 4.582 86.507.976L95.507.976 95.507 25.276 97.271 25.276 97.271 31 95.867 31 95.615 26.716 95.615 26.716z" mask="url(#b)"/>
    <path fill="#1A1918" d="M104.363,9.652 C103.402,9.652 102.581,10.243 101.896,11.425 C101.213,12.607 100.835,14.332 100.763,16.6 L107.351,16.6 C107.495,14.188 107.261,12.428 106.649,11.317 C106.037,10.207 105.274,9.652 104.363,9.652 Z M100.727,17.932 C100.774,20.439 101.123,22.351 101.771,23.665 C102.419,24.979 103.402,25.636 104.723,25.636 C105.322,25.636 105.851,25.539 106.307,25.343 C106.762,25.147 107.146,24.915 107.458,24.646 C107.819,24.377 108.13,24.047 108.395,23.656 L108.935,25.024 C108.646,25.432 108.298,25.78 107.891,26.068 C107.531,26.332 107.086,26.566 106.559,26.77 C106.031,26.974 105.407,27.076 104.687,27.076 C102.766,27.076 101.351,26.248 100.439,24.592 C99.526,22.936 99.071,20.62 99.071,17.644 C99.071,16.156 99.202,14.83 99.467,13.666 C99.73,12.502 100.097,11.512 100.565,10.696 C101.033,9.88 101.591,9.262 102.239,8.842 C102.887,8.422 103.594,8.212 104.363,8.212 C105.155,8.212 105.862,8.416 106.487,8.824 C107.11,9.232 107.626,9.844 108.035,10.66 C108.442,11.476 108.73,12.49 108.899,13.702 C109.066,14.914 109.079,16.324 108.935,17.932 L100.727,17.932 L100.727,17.932 Z"/>
    <polyline fill="#1A1918" points="120.022 18.04 113.831 18.04 113.831 26.716 112.139 26.716 112.139 8.572 113.831 8.572 113.831 16.6 120.022 16.6 120.022 8.572 121.714 8.572 121.714 26.716 120.022 26.716 120.022 18.04"/>
    <path fill="#1A1918" d="M127.402,16.636 L127.402,25.384 L128.482,25.384 C129.754,25.384 130.786,25.042 131.578,24.358 C132.37,23.674 132.766,22.552 132.766,20.992 C132.766,19.456 132.406,18.346 131.686,17.662 C130.966,16.978 129.958,16.636 128.662,16.636 L127.402,16.636 Z M125.71,8.572 L127.402,8.572 L127.402,15.304 L128.734,15.304 C130.462,15.304 131.842,15.772 132.874,16.708 C133.906,17.644 134.422,19.06 134.422,20.956 C134.422,22.876 133.882,24.316 132.802,25.276 C131.722,26.236 130.33,26.716 128.626,26.716 L125.71,26.716 L125.71,8.572 L125.71,8.572 Z"/>
    <polyline fill="#1A1918" points="138.994 10.012 138.994 26.716 137.338 26.716 137.338 8.572 145.006 8.572 145.006 10.012 138.994 10.012"/>
    <path fill="#1A1918" d="M156.057,14.08 C156.057,13.6 156.069,13.162 156.093,12.766 C156.117,12.37 156.153,11.98 156.201,11.596 L156.093,11.596 C155.973,12.004 155.829,12.394 155.661,12.766 C155.493,13.138 155.313,13.528 155.121,13.936 L149.217,26.716 L147.777,26.716 L147.777,8.572 L149.361,8.572 L149.361,21.172 C149.361,21.652 149.349,22.096 149.325,22.504 C149.301,22.912 149.265,23.32 149.217,23.728 L149.325,23.728 C149.445,23.32 149.589,22.918 149.757,22.522 C149.925,22.126 150.104,21.724 150.297,21.316 L156.201,8.572 L157.677,8.572 L157.677,26.716 L156.057,26.716 L156.057,14.08"/>
  </g>
</svg>
