<svg xmlns="http://www.w3.org/2000/svg" width="166" height="34" viewBox="0 0 166 34">
  <g fill="#FFFFFF" fill-rule="evenodd" transform="translate(-1)">
    <path d="M12.166 3.246L10.498 3.246C7.975 3.246 5.533 4.915 5.533 9.757 5.533 14.437 7.771 15.943 10.498 15.943L12.166 15.943 12.166 3.246zM9.562 18.547L4.597 29.697.976 29.697 6.429 17.773C3.865 16.472 2.156 14.111 2.156 9.757 2.156 3.653 6.022.601 10.62.601L15.3.601 15.3 29.697 12.166 29.697 12.166 18.547 9.562 18.547 9.562 18.547zM76.299 20.297C76.299 13.908 78.293 8.902 83.625 8.902 85.334 8.902 86.474 9.31 87.491 9.92L86.799 12.85C85.863 12.036 84.765 11.548 83.584 11.548 80.817 11.548 79.636 15.333 79.636 19.849 79.636 24.488 80.776 27.337 83.422 27.337 84.968 27.337 86.148 26.686 86.921 26.116L87.653 28.477C86.515 29.331 85.212 29.982 83.34 29.982 78.863 29.982 76.299 26.523 76.299 20.297zM66.899 29.697L63.725 29.697 63.725 9.187 66.899 9.187 66.899 18.669 71.742 9.187 75.038 9.187 69.91 18.872 75.771 29.697 72.311 29.697 66.899 19.482 66.899 29.697zM51.964 17.571L57.213 17.571C57.213 14.071 56.644 11.507 54.813 11.507 52.859 11.507 52.167 13.908 51.964 17.571zM55.463 29.982C51.231 29.982 48.626 26.605 48.626 20.297 48.626 13.705 50.458 8.902 54.813 8.902 58.23 8.902 60.469 11.466 60.469 18.425L60.469 20.175 51.923 20.175C51.923 24.814 53.225 27.256 55.749 27.256 57.539 27.256 58.963 26.441 59.777 25.872L60.51 28.313C59.208 29.331 57.498 29.982 55.463 29.982zM41.953 11.751L38.412 11.751 38.412 12.118C38.412 16.431 38.208 22.738 36.499 27.093L41.953 27.093 41.953 11.751zM46.714 33.727L43.865 33.727 43.865 29.697 35.075 29.697 35.075 33.727 32.227 33.727 32.227 27.093 33.488 27.093C35.36 22.738 35.563 16.391 35.563 10.938L35.563 9.187 45.086 9.187 45.086 27.093 46.714 27.093 46.714 33.727zM30.395 9.187L30.395 29.697 27.262 29.697 27.262 20.5 22.541 20.5 22.541 29.697 19.367 29.697 19.367 9.187 22.541 9.187 22.541 17.896 27.262 17.896 27.262 9.187 30.395 9.187 30.395 9.187z"/>
    <polyline points="101.477 14.355 101.477 29.697 99.441 29.697 99.441 .601 101.477 .601 101.477 14.193 109.981 .601 111.936 .601 103.552 14.03 112.668 29.697 110.389 29.697 101.477 14.355"/>
    <path d="M122.962 24.529L122.962 18.872 120.765 18.872C117.387 18.872 115.759 20.419 115.759 24 115.759 26.89 117.021 28.558 118.974 28.558 120.887 28.558 122.229 26.727 122.962 24.529zM123.043 26.93C122.066 28.884 120.602 30.105 118.566 30.105 115.8 30.105 113.887 27.906 113.887 24.163 113.887 19.768 116.288 17.489 120.724 17.489L122.962 17.489 122.962 14.925C122.962 11.792 121.782 10.449 119.544 10.449 117.794 10.449 116.206 11.263 115.229 12.687L114.701 10.856C115.515 9.798 117.224 8.78 119.544 8.78 122.921 8.78 124.834 10.652 124.834 14.722L124.834 25.913C124.834 27.337 125.037 28.924 125.281 29.697L123.531 29.697C123.369 29.168 123.165 28.395 123.043 26.93L123.043 26.93zM139.034 26.238L139.645 27.825C139.645 27.825 138.139 30.105 134.924 30.105 130.813 30.105 128.453 26.157 128.453 19.482 128.453 12.728 130.772 8.78 134.964 8.78 137.08 8.78 138.545 9.594 139.44 10.693L138.912 12.728C138.017 11.466 136.714 10.408 134.964 10.408 131.831 10.408 130.365 13.705 130.365 19.482 130.365 25.099 131.79 28.436 134.964 28.436 137.609 28.436 139.034 26.238 139.034 26.238M152.135 26.238L152.745 27.825C152.745 27.825 151.239 30.105 148.024 30.105 143.914 30.105 141.554 26.157 141.554 19.482 141.554 12.728 143.873 8.78 148.064 8.78 150.181 8.78 151.646 9.594 152.541 10.693L152.013 12.728C151.117 11.466 149.814 10.408 148.064 10.408 144.932 10.408 143.466 13.705 143.466 19.482 143.466 25.099 144.891 28.436 148.064 28.436 150.71 28.436 152.135 26.238 152.135 26.238M163.852 24.529L163.852 18.872 161.654 18.872C158.276 18.872 156.648 20.419 156.648 24 156.648 26.89 157.91 28.558 159.863 28.558 161.776 28.558 163.119 26.727 163.852 24.529zM163.933 26.93C162.956 28.884 161.491 30.105 159.456 30.105 156.689 30.105 154.776 27.906 154.776 24.163 154.776 19.768 157.178 17.489 161.613 17.489L163.852 17.489 163.852 14.925C163.852 11.792 162.671 10.449 160.434 10.449 158.684 10.449 157.096 11.263 156.119 12.687L155.591 10.856C156.404 9.798 158.113 8.78 160.434 8.78 163.811 8.78 165.724 10.652 165.724 14.722L165.724 25.913C165.724 27.337 165.927 28.924 166.171 29.697L164.421 29.697C164.259 29.168 164.055 28.395 163.933 26.93L163.933 26.93z"/>
  </g>
</svg>
